<svg width="158" height="80" viewBox="0 0 158 80" fill="none" xmlns="http://www.w3.org/2000/svg">
<path d="M12.6017 79.5778C12.6017 79.5778 5.92201 72.7344 3.71048 70.4687C-1.20906 65.4286 -1.20906 57.2442 3.71048 52.2042L8.94595 46.8404C10.3451 45.407 11.1575 43.4187 11.1575 41.3842V38.3324C11.1575 35.4655 12.2407 32.7374 14.2265 30.7491L19.2364 25.6166C20.9514 23.8595 22.1249 21.5013 22.3054 19.0043C22.486 16.1375 21.4479 13.3632 19.5072 11.3749L12.6017 4.25402L6.01228 11.005C4.29721 12.8083 3.12374 15.1202 2.94321 17.6172C2.76268 20.484 3.80075 23.2584 5.74148 25.2467L8.08841 27.6511C8.67515 28.2522 8.67515 29.177 8.08841 29.7781C7.50168 30.3792 6.59901 30.3792 6.01228 29.7781L3.93615 27.6511C1.67948 25.3391 0.144944 22.1949 0.00954369 18.8194C-0.125856 15.1665 1.18301 11.6985 3.71048 9.10914C5.92201 6.84342 12.6017 0 12.6017 0C12.6017 0 19.0558 6.61222 21.2222 8.83171C23.524 11.1899 25.0586 14.3342 25.194 17.7096C25.3294 21.3626 24.0205 24.8305 21.493 27.4199L16.2575 32.7837C14.8584 34.2171 14.046 36.2054 14.046 38.2399V41.2917C14.046 44.1585 12.9628 46.8866 10.9769 48.8749L5.74148 54.2387C1.95028 58.1228 1.95028 64.4113 5.74148 68.2492C7.45655 70.0063 12.5566 75.2313 12.5566 75.2313C12.5566 75.2313 17.7018 69.9601 19.3718 68.2492C23.163 64.3651 23.163 58.0765 19.3718 54.2387L17.07 51.8805C16.4832 51.2794 16.4832 50.3546 17.07 49.7535C17.6567 49.1524 18.5594 49.1524 19.1461 49.7535L21.4479 52.1117C26.3674 57.1518 26.3674 65.3361 21.4479 70.3762C19.2815 72.7344 12.6017 79.5778 12.6017 79.5778Z" fill="#B1FFA4"/>
<path d="M11.1572 13.2705V20.2064C11.1572 21.7785 10.5704 23.2581 9.48722 24.3679L3.71015 30.2403C1.31808 32.691 0.00921631 35.9277 0.00921631 39.3957C0.00921631 42.8636 1.31808 46.1004 3.71015 48.5048L6.50842 51.3716C6.77922 51.6491 7.18542 51.834 7.54649 51.834C7.90755 51.834 8.31375 51.6953 8.58455 51.3716C9.17129 50.7705 9.17129 49.8457 8.58455 49.2446L5.78629 46.3778C3.93582 44.5282 2.94288 42.0313 2.94288 39.3494C2.94288 36.7138 3.93582 34.2169 5.78629 32.3211L11.5634 26.4024C13.1882 24.7378 14.0908 22.5183 14.0908 20.1139V13.178L11.1572 13.2705Z" fill="#B1FFA4"/>
<path d="M14.0912 66.9082V59.3711C14.0912 57.799 14.6779 56.3194 15.7611 55.2096L21.5382 49.291C23.9303 46.8403 25.2391 43.6035 25.2391 40.1356C25.2391 36.6677 23.9303 33.4309 21.5382 31.0265L18.8302 28.2521C18.2435 27.651 17.3408 27.651 16.7541 28.2521C16.1673 28.8532 16.1673 29.778 16.7541 30.3791L19.4621 33.1535C21.3125 35.003 22.3055 37.5 22.3055 40.1818C22.3055 42.8175 21.3125 45.3144 19.4621 47.2102L13.685 53.1288C12.0602 54.7935 11.1575 57.0129 11.1575 59.4174V66.9544L14.0912 66.9082Z" fill="#B1FFA4"/>
<path d="M36.596 31.3591H41.385L44.8904 43.1445L48.297 31.3591H53.086L47.2108 49.8212H42.5206L36.596 31.3591Z" fill="#B1FFA4"/>
<path d="M59.6524 50.2256C54.5672 50.2256 52.2467 47.3424 52.2467 42.7396V42.2843C52.2467 40.6657 52.5429 39.3 53.1848 38.1367C54.419 35.8099 56.6901 34.5454 59.7511 34.5454C61.4791 34.5454 62.8615 34.8995 63.9477 35.557C66.12 36.9733 67.1075 39.2495 67.1075 41.9808V43.65H56.7889C57.0357 45.5215 57.9738 46.432 59.8005 46.432C61.0842 46.432 61.8247 45.8756 62.121 45.0157H66.9594C66.1694 48.2529 63.9477 50.2256 59.6524 50.2256ZM56.7889 40.8175H62.5653C62.3678 39.0977 61.5285 38.1873 59.8005 38.1873C58.0725 38.1367 57.0851 38.9966 56.7889 40.8175Z" fill="#B1FFA4"/>
<path d="M68.9841 34.8996H72.6376L73.2794 37.985C73.7731 35.6583 75.2049 34.6973 77.8709 34.6973H78.7102V39.6036H76.9822C76.0935 39.6036 75.4023 39.7554 74.9086 39.9577C73.9706 40.4129 73.6743 41.4246 73.6743 43.1949V49.821H68.9841V34.8996Z" fill="#B1FFA4"/>
<path d="M87.9915 49.8715C86.5104 49.8715 85.4242 49.6692 84.5849 49.2645C83.005 48.4552 82.5113 46.6849 82.5113 43.5489V39.0471H80.0427V35.1524C80.6352 35.1524 80.9808 35.1018 81.4745 35.0007C82.4125 34.8489 82.8075 34.4948 82.9063 33.1797C83.005 32.5728 83.0544 31.7635 83.0544 31.1565H86.8066V34.8995H90.2626V39.0471H86.8066V42.6384C86.8066 43.4983 86.9053 44.1558 87.0041 44.5605C87.3003 45.3698 87.8928 45.5215 89.3739 45.5215H90.312V49.8715H87.9915Z" fill="#B1FFA4"/>
<path d="M91.892 31.713C91.892 29.9426 92.7806 29.3862 94.6568 29.3862C96.4835 29.3862 97.4216 29.9932 97.4216 31.713C97.4216 33.4327 96.5822 34.0397 94.6568 34.0397C92.6325 34.0397 91.892 33.4833 91.892 31.713ZM92.7806 35.1525C93.3731 35.2536 94.1137 35.3042 94.6074 35.3042C94.9036 35.3042 95.1505 35.2536 95.4961 35.2536C96.1873 35.2031 96.8291 35.1019 96.9772 35.0007V49.8716H92.2376V35.0007C92.3363 35.1019 92.4844 35.1525 92.7806 35.1525Z" fill="#B1FFA4"/>
<path d="M105.321 49.8719H100.927V39.8568H98.6065V35.7597H100.927V34.9504C100.927 31.1063 102.507 29.6394 106.358 29.6394H108.481V33.433H107.049C105.617 33.433 105.37 33.7871 105.37 35.5574V35.8103H108.481V39.9074H105.37L105.321 49.8719Z" fill="#B1FFA4"/>
<path d="M110.258 29.9934H114.899V49.8212H110.258V29.9934Z" fill="#B1FFA4"/>
<path d="M116.775 42.7398V42.2845C116.775 40.5648 117.121 39.1485 117.713 38.0357C118.947 35.7596 121.268 34.5962 124.131 34.5962C125.613 34.5962 126.896 34.8997 127.982 35.4561C130.204 36.6194 131.488 38.8956 131.488 42.2845V42.7398C131.488 44.4089 131.192 45.7746 130.599 46.8874C129.365 49.113 127.143 50.2258 124.131 50.2258C119.342 50.2258 116.775 47.7473 116.775 42.7398ZM126.896 42.6892V42.2845C126.896 39.8566 125.909 38.5921 124.131 38.5921C122.403 38.5921 121.268 39.7555 121.268 42.2845V42.6892C121.268 45.0159 122.403 46.1793 124.082 46.1793C125.81 46.1793 126.896 45.0159 126.896 42.6892Z" fill="#B1FFA4"/>
<path d="M133.413 34.8996H137.067L137.758 37.985C138.252 35.6583 139.683 34.6973 142.349 34.6973H143.189V39.6036H141.461C140.572 39.6036 139.881 39.7554 139.387 39.9577C138.449 40.4129 138.153 41.4246 138.153 43.1949V49.821H133.463V34.8996H133.413Z" fill="#B1FFA4"/>
<path d="M148.521 50.2256C145.361 50.2256 143.831 48.6575 143.831 46.1791C143.831 44.3582 144.571 43.1948 145.756 42.4867C146.151 42.2337 146.546 42.0314 146.941 41.8797C147.731 41.5762 148.768 41.3739 150.348 41.121C152.569 40.8175 153.458 40.5646 153.458 39.6035C153.458 38.7436 152.964 38.1367 151.384 38.1367C149.804 38.1367 149.015 38.8448 148.965 40.3117H144.324C144.571 36.8216 146.842 34.5454 151.434 34.5454C153.063 34.5454 154.347 34.7983 155.285 35.2535C157.26 36.164 158 37.9343 158 40.2611V49.8209H154.248L153.754 47.3424C152.816 49.0622 151.286 50.2256 148.521 50.2256ZM152.026 46.3814C152.915 45.7744 153.507 44.8134 153.507 43.8523V42.9419C153.063 43.2959 152.421 43.4477 151.532 43.65C150.298 43.9029 149.804 44.0041 149.36 44.3076C148.965 44.6111 148.768 45.0157 148.768 45.4709C148.768 46.3308 149.36 46.786 150.446 46.786C150.989 46.8366 151.532 46.6849 152.026 46.3814Z" fill="#B1FFA4"/>
<path d="M20.7708 2.83711V2.68504C20.7708 1.69656 21.5207 1.16431 22.5986 1.16431C23.6765 1.16431 24.4263 1.69656 24.4263 2.64702V2.83711C24.4263 3.14126 24.3326 3.40738 24.192 3.63549C23.8639 4.09171 23.3015 4.2818 22.5986 4.2818C21.5207 4.31982 20.7708 3.8636 20.7708 2.83711ZM23.8171 2.79909V2.68504C23.8171 2.00071 23.3953 1.62053 22.5986 1.62053C21.8019 1.62053 21.4269 2.00071 21.4269 2.68504V2.76107C21.4269 3.48342 21.8019 3.74955 22.6454 3.74955C23.4421 3.78757 23.8171 3.52144 23.8171 2.79909ZM22.458 3.55946H21.8487V1.92467H22.6923C23.2547 1.92467 23.489 2.07675 23.489 2.45693C23.489 2.64702 23.3953 2.76107 23.2078 2.87513C23.3484 2.95117 23.3953 3.06522 23.3953 3.29333V3.4454C23.3953 3.48342 23.3953 3.52144 23.4421 3.52144H22.8329C22.786 3.52144 22.786 3.48342 22.786 3.40738V3.29333C22.786 3.10324 22.786 3.06522 22.5517 3.06522H22.458V3.55946ZM22.458 2.64702H22.5986C22.8329 2.64702 22.9266 2.609 22.9266 2.49495C22.9266 2.38089 22.8798 2.34287 22.5986 2.34287H22.458V2.64702Z" fill="#B1FFA4"/>
</svg>
